<svg width="51.206" height="49.789" xmlns="http://www.w3.org/2000/svg"><defs><linearGradient id="c" x1="342.96" x2="342.96" y1="379.6" y2="85.562" gradientTransform="matrix(.1 0 0 .1 -8.522 -8.529)" gradientUnits="userSpaceOnUse"><stop stop-color="#098fcb" offset="0"/><stop stop-color="#a8e4ff" offset="1"/></linearGradient><linearGradient id="b" x1="342.96" x2="342.96" y1="379.6" y2="85.562" gradientTransform="matrix(.1 0 0 .1 -8.522 1.594)" gradientUnits="userSpaceOnUse"><stop stop-color="#245583" offset="0"/><stop stop-color="#088fcb" offset="1"/></linearGradient><linearGradient id="a" x1="342.96" x2="342.96" y1="379.6" y2="85.562" gradientTransform="matrix(.1 0 0 .1 -8.522 11.717)" gradientUnits="userSpaceOnUse"><stop stop-color="#132e47" offset="0"/><stop stop-color="#245582" offset="1"/></linearGradient></defs><g stroke-width=".1"><path d="M25.428 20.246c2.181 0 3.318.509 3.318.509l21.549 12.343s.89.71.91 1.858c.018 1.15-.868 1.93-.868 1.93l-20.82 12.085s-1.337.818-3.7.818-3.712-.64-3.712-.64L2.123 37.7S.036 36.617 0 35.084c-.036-1.533 1.524-2.354 1.524-2.354l20.67-11.932s1.053-.552 3.234-.552z" fill="url(#a)"/><path d="M25.429 10.123c2.181 0 3.318.509 3.318.509l21.549 12.343s.89.71.91 1.858c.018 1.15-.868 1.93-.868 1.93l-20.82 12.085s-1.337.818-3.7.818-3.712-.64-3.712-.64L2.124 27.577S.037 26.494.001 24.961c-.036-1.533 1.524-2.354 1.524-2.354l20.67-11.932s1.053-.552 3.234-.552z" fill="url(#b)"/><path d="M25.428 0c2.181 0 3.318.51 3.318.51l21.549 12.342s.89.71.91 1.859-.868 1.93-.868 1.93l-20.82 12.084s-1.337.818-3.7.818-3.712-.64-3.712-.64L2.123 17.456S.036 16.37 0 14.838c-.036-1.532 1.524-2.354 1.524-2.354L22.194.552S23.247 0 25.428 0z" fill="url(#c)"/></g></svg>