<?xml version="1.0" encoding="UTF-8"?>
<svg width="185.31" height="49.789" version="1.1" xmlns="http://www.w3.org/2000/svg">
 <defs>
  <linearGradient id="c" x1="342.96" x2="342.96" y1="379.6" y2="85.562" gradientTransform="translate(.406)" gradientUnits="userSpaceOnUse">
   <stop stop-color="#098fcb" offset="0"/>
   <stop stop-color="#a8e4ff" offset="1"/>
  </linearGradient>
  <linearGradient id="b" x1="342.96" x2="342.96" y1="379.6" y2="85.562" gradientTransform="translate(.406 101.23)" gradientUnits="userSpaceOnUse">
   <stop stop-color="#245583" offset="0"/>
   <stop stop-color="#088fcb" offset="1"/>
  </linearGradient>
  <linearGradient id="a" x1="342.96" x2="342.96" y1="379.6" y2="85.562" gradientTransform="translate(.406 202.46)" gradientUnits="userSpaceOnUse">
   <stop stop-color="#132e47" offset="0"/>
   <stop stop-color="#245582" offset="1"/>
  </linearGradient>
 </defs>
 <g transform="translate(.03732 -.0086)">
  <path transform="matrix(.1 0 0 .1 -8.6 -8.52)" d="m339.91 287.75c21.811 0 33.178 5.09 33.178 5.09l215.49 123.43s8.902 7.095 9.093 18.583c0.19 11.489-8.667 19.306-8.667 19.306l-208.2 120.84s-13.377 8.177-36.995 8.177-37.125-6.403-37.125-6.403l-199.82-114.47s-20.87-10.847-21.231-26.173c-0.362-15.326 15.239-23.543 15.239-23.543l206.7-119.32s10.527-5.52 32.338-5.52z" fill="url(#a)"/>
  <path transform="matrix(.1 0 0 .1 -8.6 -8.52)" d="m339.92 186.52c21.811 0 33.178 5.09 33.178 5.09l215.49 123.43s8.902 7.095 9.093 18.583c0.19 11.489-8.667 19.306-8.667 19.306l-208.2 120.84s-13.378 8.177-36.996 8.177-37.124-6.403-37.124-6.403l-199.82-114.47s-20.87-10.847-21.231-26.173c-0.362-15.326 15.239-23.543 15.239-23.543l206.7-119.32s10.527-5.52 32.338-5.52z" fill="url(#b)"/>
  <path transform="matrix(.1 0 0 .1 -8.6 -8.52)" d="m339.91 85.289c21.811 0 33.178 5.09 33.178 5.09l215.49 123.43s8.902 7.095 9.093 18.583-8.667 19.306-8.667 19.306l-208.2 120.84s-13.377 8.177-36.995 8.177-37.125-6.403-37.125-6.403l-199.82-114.47s-20.87-10.847-21.231-26.173 15.239-23.543 15.239-23.543l206.7-119.32s10.527-5.52 32.338-5.52z" fill="url(#c)"/>
 </g>
 <g fill="#00658b" font-family="Rubik" font-weight="600" letter-spacing="-.64px">
  <path d="m73.441 36.415q-2.976 0-4.992-0.864-1.984-0.896-3.04-2.304-1.024-1.44-1.088-3.008 0-0.288 0.192-0.48t0.48-0.192h2.848q0.416 0 0.608 0.192 0.224 0.16 0.384 0.416 0.192 0.608 0.736 1.216 0.544 0.576 1.472 0.96 0.96 0.384 2.4 0.384 2.304 0 3.424-0.768 1.152-0.768 1.152-2.08 0-0.928-0.608-1.472-0.608-0.576-1.888-1.024-1.248-0.48-3.328-0.992-2.4-0.576-4.032-1.376-1.6-0.832-2.432-2.08-0.8-1.248-0.8-3.168 0-1.856 0.992-3.296 1.024-1.44 2.88-2.272 1.888-0.832 4.48-0.832 2.08 0 3.68 0.576 1.6 0.544 2.656 1.472 1.056 0.896 1.6 1.952 0.576 1.024 0.608 2.016 0 0.256-0.192 0.48-0.16 0.192-0.48 0.192h-2.976q-0.256 0-0.512-0.128t-0.416-0.48q-0.192-0.992-1.248-1.696t-2.72-0.704q-1.728 0-2.784 0.64t-1.056 1.984q0 0.896 0.512 1.504 0.544 0.576 1.696 1.024 1.184 0.448 3.104 0.96 2.72 0.608 4.448 1.408t2.528 2.048q0.8 1.216 0.8 3.104 0 2.112-1.152 3.616-1.12 1.472-3.168 2.272t-4.768 0.8zm19.264-0.32q-1.92 0-3.232-0.672t-1.952-1.984q-0.64-1.344-0.64-3.328v-7.264h-2.528q-0.32 0-0.544-0.224t-0.224-0.576v-1.824q0-0.32 0.224-0.544t0.544-0.224h2.528v-5.312q0-0.32 0.192-0.544 0.224-0.224 0.576-0.224h2.592q0.32 0 0.544 0.224t0.224 0.544v5.312h4q0.32 0 0.544 0.224t0.224 0.544v1.824q0 0.352-0.224 0.576t-0.544 0.224h-4v6.944q0 1.312 0.448 2.048 0.48 0.736 1.632 0.736h2.208q0.32 0 0.544 0.224t0.224 0.544v1.984q0 0.32-0.224 0.544t-0.544 0.224zm6.336 0q-0.32 0-0.544-0.224t-0.224-0.544v-15.072q0-0.352 0.224-0.576t0.544-0.224h2.592q0.32 0 0.544 0.224 0.256 0.224 0.256 0.576v1.312q0.736-1.024 1.888-1.568 1.184-0.544 2.72-0.544h1.312q0.352 0 0.544 0.224 0.224 0.224 0.224 0.544v2.304q0 0.32-0.224 0.544-0.192 0.224-0.544 0.224h-2.496q-1.536 0-2.4 0.864-0.832 0.832-0.832 2.368v8.8q0 0.32-0.224 0.544t-0.576 0.224zm16.512 0.32q-1.664 0-3.008-0.64-1.344-0.672-2.144-1.76-0.768-1.12-0.768-2.496 0-2.24 1.824-3.552 1.824-1.344 4.768-1.792l4.384-0.64v-0.672q0-1.344-0.672-2.08t-2.304-0.736q-1.152 0-1.888 0.48-0.704 0.448-1.056 1.216-0.256 0.416-0.736 0.416h-2.528q-0.352 0-0.544-0.192-0.16-0.192-0.16-0.512 0.032-0.512 0.416-1.248 0.416-0.736 1.216-1.408 0.832-0.704 2.144-1.184t3.168-0.48q2.016 0 3.392 0.512 1.408 0.48 2.24 1.312t1.216 1.952 0.384 2.368v10.048q0 0.32-0.224 0.544t-0.544 0.224h-2.592q-0.352 0-0.576-0.224-0.192-0.224-0.192-0.544v-1.248q-0.416 0.576-1.12 1.12t-1.728 0.896q-0.992 0.32-2.368 0.32zm1.088-3.04q1.12 0 2.016-0.48 0.928-0.48 1.44-1.472 0.544-1.024 0.544-2.56v-0.672l-3.2 0.512q-1.888 0.288-2.816 0.928t-0.928 1.568q0 0.704 0.416 1.216 0.448 0.48 1.12 0.736 0.672 0.224 1.408 0.224zm19.072 2.72q-1.92 0-3.232-0.672t-1.952-1.984q-0.64-1.344-0.64-3.328v-7.264h-2.528q-0.32 0-0.544-0.224t-0.224-0.576v-1.824q0-0.32 0.224-0.544t0.544-0.224h2.528v-5.312q0-0.32 0.192-0.544 0.224-0.224 0.576-0.224h2.592q0.32 0 0.544 0.224t0.224 0.544v5.312h4q0.32 0 0.544 0.224t0.224 0.544v1.824q0 0.352-0.224 0.576t-0.544 0.224h-4v6.944q0 1.312 0.448 2.048 0.48 0.736 1.632 0.736h2.208q0.32 0 0.544 0.224t0.224 0.544v1.984q0 0.32-0.224 0.544t-0.544 0.224zm11.744 0.32q-1.952 0-3.392-0.864-1.408-0.896-2.176-2.496-0.768-1.632-0.768-3.84v-8.992q0-0.32 0.224-0.544t0.544-0.224h2.816q0.352 0 0.544 0.224 0.224 0.224 0.224 0.544v8.8q0 3.968 3.488 3.968 1.664 0 2.624-1.056 0.992-1.056 0.992-2.912v-8.8q0-0.32 0.224-0.544t0.544-0.224h2.816q0.32 0 0.544 0.224t0.224 0.544v15.104q0 0.32-0.224 0.544t-0.544 0.224h-2.592q-0.352 0-0.576-0.224-0.192-0.224-0.192-0.544v-1.312q-0.864 1.12-2.144 1.76t-3.2 0.64zm13.824-0.32q-0.32 0-0.544-0.224t-0.224-0.544v-15.104q0-0.32 0.224-0.544t0.544-0.224h2.496q0.32 0 0.544 0.224t0.224 0.544v1.088q0.672-0.896 1.792-1.504 1.152-0.64 2.72-0.672 3.648-0.064 5.088 2.848 0.736-1.28 2.112-2.048 1.408-0.8 3.104-0.8 1.664 0 3.008 0.768 1.376 0.768 2.144 2.336 0.8 1.536 0.8 3.904v9.184q0 0.32-0.224 0.544t-0.544 0.224h-2.624q-0.32 0-0.544-0.224t-0.224-0.544v-8.928q0-1.44-0.416-2.272-0.416-0.864-1.12-1.216t-1.568-0.352q-0.704 0-1.408 0.352t-1.152 1.216q-0.448 0.832-0.448 2.272v8.928q0 0.32-0.224 0.544t-0.544 0.224h-2.624q-0.32 0-0.544-0.224t-0.224-0.544v-8.928q0-1.44-0.448-2.272-0.448-0.864-1.152-1.216t-1.504-0.352q-0.736 0-1.44 0.384-0.704 0.352-1.152 1.184t-0.448 2.272v8.928q0 0.32-0.224 0.544t-0.544 0.224z" fill="#000" aria-label="Stratum"/>
  <text font-size="8px" style="shape-inside:url(#rect10);white-space:pre" xml:space="preserve"/>
  <text font-size="8px" style="shape-inside:url(#rect11);white-space:pre" xml:space="preserve"/>
  <text font-size="53.333px" style="shape-inside:url(#rect12);white-space:pre" xml:space="preserve"/>
 </g>
</svg>
